<?xml version="1.0" standalone="no"?>
<!DOCTYPE svg PUBLIC "-//W3C//DTD SVG 20010904//EN"
 "http://www.w3.org/TR/2001/REC-SVG-20010904/DTD/svg10.dtd">
<svg version="1.0" xmlns="http://www.w3.org/2000/svg"
 width="549.000000pt" height="669.000000pt" viewBox="0 0 549.000000 669.000000"
 preserveAspectRatio="xMidYMid meet">

<g transform="translate(0.000000,669.000000) scale(0.100000,-0.100000)"
fill="#000000" stroke="none">
<path d="M1627 6435 c-42 -42 -60 -86 -54 -136 9 -70 26 -101 71 -124 49 -26
56 -48 54 -174 -3 -143 6 -177 52 -206 41 -26 42 -29 60 -118 15 -76 34 -73
80 15 19 36 45 81 57 99 12 18 25 58 29 88 9 70 -2 284 -17 336 -13 46 -64
101 -103 111 -38 9 -42 0 -17 -39 17 -27 19 -40 12 -60 -11 -29 -29 -37 -81
-37 -55 0 -66 23 -49 105 14 71 3 114 -35 140 -26 19 -41 19 -59 0z m244 -393
c22 -66 7 -185 -27 -212 -12 -11 -18 -10 -32 4 -25 25 -24 191 1 229 22 34 42
26 58 -21z"/>
<path d="M1655 5732 c-25 -18 -37 -45 -50 -113 -7 -41 -20 -110 -29 -154 -8
-44 -22 -131 -30 -192 -13 -97 -13 -118 -1 -152 35 -101 77 -147 140 -157 72
-10 109 14 70 46 -28 23 -58 145 -53 218 3 57 9 75 40 122 39 58 63 139 53
177 -3 12 -18 29 -33 37 -43 22 -54 41 -66 108 -11 60 -21 75 -41 60z"/>
<path d="M2859 5387 c-19 -12 -63 -46 -97 -76 -47 -41 -65 -65 -77 -101 -16
-47 -15 -50 11 -112 19 -46 28 -87 32 -151 5 -87 4 -88 -27 -127 l-31 -39 26
-20 c15 -11 30 -19 34 -16 4 3 11 35 14 72 9 88 21 125 50 152 31 29 46 21
105 -53 26 -34 85 -95 130 -136 44 -40 95 -97 113 -127 26 -42 44 -59 94 -85
35 -18 115 -80 181 -138 65 -58 156 -131 203 -161 47 -31 105 -69 129 -85 24
-16 64 -42 90 -58 25 -15 61 -42 80 -58 18 -16 45 -35 60 -41 14 -6 44 -24 66
-39 41 -30 114 -74 220 -135 33 -19 69 -43 80 -53 11 -10 38 -27 61 -38 22
-11 57 -41 78 -67 21 -25 61 -57 89 -72 l52 -26 232 9 c137 6 237 14 243 20
17 17 -64 110 -116 133 -24 11 -58 31 -76 44 -18 14 -60 39 -93 56 -119 63
-247 148 -330 221 -53 46 -232 179 -289 215 -17 10 -70 53 -118 95 -48 41
-119 98 -158 125 -39 28 -99 73 -132 100 -78 63 -738 720 -738 734 0 16 -96
61 -127 60 -15 0 -44 -11 -64 -22z"/>
<path d="M2221 4784 c-58 -41 -103 -48 -296 -45 -99 1 -211 -3 -250 -9 -79
-12 -192 -54 -233 -87 -26 -21 -27 -22 -12 -55 11 -25 15 -73 15 -200 0 -184
4 -197 52 -180 31 10 148 85 278 177 28 19 84 59 125 88 58 41 81 64 100 102
24 49 26 50 74 53 61 4 132 49 152 98 8 18 25 41 39 50 14 9 25 20 25 25 0 16
-34 8 -69 -17z"/>
<path d="M2724 4628 c-5 -18 -8 -76 -9 -128 l0 -95 -61 -25 c-73 -30 -90 -43
-98 -76 -5 -17 -15 -26 -37 -31 -55 -11 -57 -63 -3 -63 13 0 35 -10 49 -23 25
-21 26 -27 20 -71 -4 -27 -18 -60 -32 -76 -16 -19 -26 -48 -31 -87 -6 -49 -10
-58 -27 -58 -37 0 -55 57 -54 168 1 111 -10 139 -50 118 -27 -15 -28 -57 -1
-73 27 -17 26 -24 -15 -62 -31 -29 -35 -39 -35 -82 0 -27 4 -77 9 -111 8 -54
15 -67 53 -105 23 -24 51 -56 61 -71 17 -26 21 -27 106 -27 102 0 131 -15 151
-78 19 -57 26 -58 45 -2 15 45 16 57 4 98 -9 30 -13 82 -10 142 4 131 5 195 2
265 -2 33 -1 170 1 305 3 135 1 253 -4 263 -13 26 -26 21 -34 -15z m-60 -659
c-3 -5 -10 -7 -15 -3 -5 3 -7 10 -3 15 3 5 10 7 15 3 5 -3 7 -10 3 -15z m-59
-139 c17 -19 17 -20 -8 -31 -31 -14 -57 1 -57 32 0 26 41 25 65 -1z"/>
<path d="M2360 4476 c-20 -26 -8 -61 22 -64 22 -3 30 2 39 22 6 13 9 32 6 40
-8 20 -51 21 -67 2z"/>
<path d="M3345 3624 c-47 -12 -76 -28 -87 -48 -7 -13 -12 -110 -13 -271 -2
-137 -6 -262 -10 -277 -4 -15 -2 -65 5 -111 8 -61 9 -108 1 -177 -7 -66 -7
-115 1 -168 8 -54 8 -92 -1 -143 -8 -51 -8 -93 0 -164 8 -72 8 -115 -1 -176
-9 -63 -9 -96 1 -150 9 -53 9 -84 0 -139 -9 -55 -9 -98 0 -183 9 -87 9 -125
-1 -174 -10 -51 -10 -79 0 -141 9 -57 10 -96 2 -151 -8 -52 -8 -107 0 -185 9
-93 8 -121 -5 -170 -12 -45 -13 -64 -5 -85 15 -35 14 -231 -2 -306 -22 -103
-20 -118 20 -138 28 -14 54 -17 137 -15 124 4 135 12 196 138 22 47 51 98 65
115 13 16 40 63 59 104 39 83 40 95 10 266 -9 50 -21 176 -27 280 -6 105 -18
269 -26 365 -15 154 -15 204 -4 415 15 278 16 471 1 570 -5 39 -15 158 -21
265 -6 107 -18 254 -25 325 -8 72 -18 208 -22 304 -8 222 -8 222 -138 227 -50
1 -99 1 -110 -2z"/>
<path d="M780 3450 c-12 -8 -11 -10 8 -10 12 0 22 5 22 10 0 13 -11 13 -30 0z"/>
<path d="M2737 3375 c-9 -52 -8 -145 2 -169 6 -16 10 -11 19 26 15 57 14 91
-2 143 l-12 40 -7 -40z"/>
<path d="M2000 3363 c-35 -15 -129 -14 -248 3 -53 8 -106 -2 -127 -23 -14 -13
-16 -36 -14 -137 2 -67 -1 -241 -6 -388 -7 -242 -7 -269 9 -292 20 -32 136
-86 182 -86 19 0 96 18 171 40 l136 40 55 -16 c61 -18 174 -16 194 4 9 9 11
106 9 374 -3 426 0 412 -99 465 -57 30 -70 33 -145 32 -50 0 -96 -7 -117 -16z
m-108 -160 c58 -26 59 -26 96 -8 56 26 154 32 201 10 61 -27 66 -46 63 -231
-2 -91 2 -198 9 -243 14 -98 5 -118 -73 -157 -69 -35 -131 -30 -194 15 -25 17
-47 31 -51 31 -3 0 -30 -22 -59 -50 -39 -37 -61 -50 -82 -50 -34 0 -77 30 -96
68 -18 36 -33 560 -17 591 30 55 113 65 203 24z"/>
<path d="M2737 3069 c-8 -31 -7 -136 2 -168 6 -22 9 -17 25 35 17 57 17 60 -2
108 -17 44 -20 47 -25 25z"/>
<path d="M2737 2760 c-9 -33 -8 -160 2 -184 7 -18 9 -16 19 14 15 42 15 83 -1
145 -12 44 -14 47 -20 25z"/>
<path d="M2737 2426 c-8 -21 -7 -119 2 -160 6 -28 7 -25 25 33 19 62 19 64 -1
104 -16 32 -21 37 -26 23z"/>
<path d="M2737 2080 c-9 -33 -8 -460 2 -483 5 -13 12 2 24 53 16 68 16 76 0
155 -15 72 -15 90 -4 127 21 73 22 92 3 133 -18 38 -19 39 -25 15z"/>
<path d="M2353 1568 c-13 -22 -21 -354 -12 -548 5 -102 8 -286 8 -410 0 -199
-2 -230 -18 -264 -22 -46 -19 -59 15 -75 34 -15 48 -14 74 7 23 18 23 19 7 67
-15 43 -17 115 -17 622 0 377 -4 581 -10 594 -12 22 -35 25 -47 7z"/>
<path d="M1722 1508 c-17 -17 -15 -64 4 -82 19 -20 19 -20 80 -1 43 13 55 13
101 0 68 -20 89 -48 74 -101 -7 -26 -7 -49 1 -80 10 -37 9 -51 -6 -93 -23 -64
-18 -102 14 -118 14 -6 72 -13 130 -15 l105 -3 13 40 c7 22 16 69 19 106 8 95
-17 138 -101 169 -62 23 -56 50 15 73 42 13 59 24 68 45 11 24 10 29 -14 49
-25 22 -31 23 -259 23 -163 -1 -236 -4 -244 -12z"/>
<path d="M2736 1445 c-8 -21 -8 -103 0 -133 6 -23 7 -22 25 8 24 39 24 71 0
110 -15 25 -20 28 -25 15z"/>
<path d="M1635 1217 c-4 -35 -10 -202 -13 -371 -8 -353 0 -329 -107 -340 -36
-4 -72 -9 -80 -12 -45 -18 19 -50 118 -60 62 -6 66 -5 82 19 36 56 47 126 48
327 2 211 9 243 57 267 14 7 48 13 77 13 66 0 71 9 69 125 -2 89 -2 90 -28 93
-20 2 -30 -4 -46 -32 -38 -65 -85 -65 -123 -1 -32 53 -46 45 -54 -28z"/>
<path d="M2737 1156 c-9 -23 -8 -166 2 -190 6 -16 10 -11 19 26 15 60 15 115
-2 153 -10 25 -13 27 -19 11z"/>
<path d="M2097 852 c-21 -24 -22 -90 -1 -120 12 -17 25 -22 59 -22 34 0 47 5
59 22 23 32 20 94 -4 118 -26 26 -90 27 -113 2z"/>
<path d="M2736 804 c-8 -21 -6 -114 2 -137 6 -14 12 -9 30 28 l22 46 -20 39
c-23 45 -25 47 -34 24z"/>
<path d="M840 534 c-14 -36 -12 -87 4 -109 13 -18 14 -18 40 8 32 32 33 58 4
97 -27 37 -36 37 -48 4z"/>
<path d="M2737 511 c-4 -18 -7 -54 -7 -80 0 -25 -7 -59 -15 -75 -23 -44 -19
-75 11 -82 32 -8 74 10 74 32 0 10 -7 40 -15 68 -9 28 -21 78 -28 111 -13 58
-13 59 -20 26z"/>
<path d="M1592 344 c-42 -29 -16 -64 46 -64 42 0 57 22 35 48 -25 29 -55 35
-81 16z"/>
</g>
</svg>
